<?xml version="1.0" encoding="UTF-8"?>
<svg width="50px" height="50px" viewBox="0 0 50 50" version="1.1" xmlns="http://www.w3.org/2000/svg" xmlns:xlink="http://www.w3.org/1999/xlink">
    <!-- Generator: sketchtool 54.1 (76490) - https://sketchapp.com -->
    <title>430A7E09-67D1-4247-AFFF-728B37C6F880</title>
    <desc>Created with sketchtool.</desc>
    <g id="Page-1" stroke="none" stroke-width="1" fill="none" fill-rule="evenodd">
        <g id="alerts---empty-view" transform="translate(-53.000000, -381.000000)" fill="#00A7E0" fill-rule="nonzero">
            <g id="icons-/-add" transform="translate(53.000000, 381.000000)">
                <path d="M25,0 C11.1928813,-8.45442189e-16 1.69088438e-15,11.1928813 0,25 C-1.69088438e-15,38.8071187 11.1928813,50 25,50 C38.8071187,50 50,38.8071187 50,25 C50,18.3695878 47.366079,12.0107399 42.6776695,7.32233047 C37.9892601,2.63392101 31.6304122,4.05995657e-16 25,0 Z M37.5,27.5 L27.5,27.5 L27.5,37.5 L22.5,37.5 L22.5,27.5 L12.5,27.5 L12.5,22.5 L22.5,22.5 L22.5,12.5 L27.5,12.5 L27.5,22.5 L37.5,22.5 L37.5,27.5 Z" id="Path_646"></path>
            </g>
        </g>
    </g>
</svg>