<?xml version="1.0" encoding="UTF-8"?>
<svg width="17px" height="20px" viewBox="0 0 17 20" version="1.1" xmlns="http://www.w3.org/2000/svg" xmlns:xlink="http://www.w3.org/1999/xlink">
    <!-- Generator: sketchtool 54.1 (76490) - https://sketchapp.com -->
    <title>988AEBE9-21A0-4243-8088-BA6C91A668DF</title>
    <desc>Created with sketchtool.</desc>
    <g id="Page-1" stroke="none" stroke-width="1" fill="none" fill-rule="evenodd" opacity="1.0">
        <g id="alerts-list" transform="translate(-179.000000, -768.000000)" fill="#00A7E0" fill-rule="nonzero">
            <g id="alerts_list">
                <g id="Navigation_Bar_6" transform="translate(0.000000, 756.000000)">
                    <g id="Bell_3" transform="translate(179.000000, 12.000000)">
                        <g id="Icons-17">
                            <path d="M8.372,20 C8.86299706,20.0002655 9.33396041,19.8053352 9.68114782,19.4581478 C10.0283352,19.1109604 10.2232655,18.6399971 10.2230003,18.149 L6.52299973,18.149 C6.52273471,18.6396505 6.71739049,19.1103107 7.06414527,19.4574405 C7.41090005,19.8045704 7.88134947,19.9997349 8.372,20 L8.372,20 Z M14.884,14.419 L14.884,8.837 C14.8829693,5.78006296 12.7535376,3.13627175 9.767,2.484 L9.767,0 L6.977,0 L6.977,2.484 C3.99046242,3.13627175 1.86103072,5.78006296 1.86,8.837 L1.86,14.419 L0,16.279 L0,17.209 L16.744,17.209 L16.744,16.279 L14.884,14.419 Z" id="Path_645"></path>
                        </g>
                    </g>
                </g>
            </g>
        </g>
    </g>
</svg>