<?xml version="1.0" encoding="UTF-8"?>
<svg width="60px" height="60px" viewBox="0 0 60 60" version="1.1" xmlns="http://www.w3.org/2000/svg" xmlns:xlink="http://www.w3.org/1999/xlink">
    <!-- Generator: sketchtool 54.1 (76490) - https://sketchapp.com -->
    <title>147CEC0D-478A-48FA-87C4-3B3DB97EE620</title>
    <desc>Created with sketchtool.</desc>
    <g id="Page-1" stroke="none" stroke-width="1" fill="none" fill-rule="evenodd">
        <g id="alerts---create-(no-result)-" transform="translate(-158.000000, -148.000000)" fill="#B7BABD" fill-rule="nonzero">
            <path d="M203.342,189.715 L217.117,203.49 L213.347,207.26 L199.554,193.468 C189.168235,201.76285 174.108107,200.483294 165.270623,190.555176 C156.433139,180.627057 156.906858,165.520095 166.349012,156.165183 C175.791167,146.810272 190.901875,146.476802 200.747533,155.406062 C210.593191,164.335322 211.732898,179.406678 203.342,189.715 Z M183.968,193.605 C194.80819,193.592876 203.592876,184.80819 203.605,173.968 C203.604448,163.123597 194.81307,154.332816 183.968667,154.333 C173.124264,154.333184 164.333184,163.124264 164.333,173.968667 C164.332816,184.81307 173.123597,193.604448 183.968,193.605 Z M181.302,157.423 L186.634,157.423 L186.634,180.827 L181.302,180.827 L181.302,157.423 Z M181.302,185.16 L186.634,185.16 L186.634,190.251 L181.302,190.251 L181.302,185.16 Z" id="Combined-Shape"></path>
        </g>
    </g>
</svg>