<?xml version="1.0" encoding="UTF-8"?>
<svg width="251px" height="54px" viewBox="0 0 251 54" version="1.1" xmlns="http://www.w3.org/2000/svg" xmlns:xlink="http://www.w3.org/1999/xlink">
    <!-- Generator: sketchtool 54.1 (76490) - https://sketchapp.com -->
    <title>19851830-D39D-4CF0-BFB5-F84918793E11</title>
    <desc>Created with sketchtool.</desc>
    <g id="Page-1" stroke="none" stroke-width="1" fill="none" fill-rule="evenodd">
        <g id="splash-screen" transform="translate(-62.000000, -379.000000)" fill-rule="nonzero">
            <g id="cortellis-logo-/-white" transform="translate(62.000000, 377.000000)">
                <g id="Cortellis_Logo_RGB_Color-2">
                    <path d="M27.752667,31.328923 C28.519153,31.3379706 29.2154445,30.9035106 29.5153467,30.2290766 C29.8152488,29.5546425 29.6593588,28.7738224 29.120707,28.2524105 C28.5820553,27.7309985 27.7673349,27.572273 27.0582215,27.8505928 C26.3491081,28.1289126 25.8860588,28.7891497 25.8860004,29.5219999 C25.9504886,30.4847919 26.7464875,31.2553145 27.752667,31.328923 M13.3139999,6.20823091 C8.41848902,12.1234246 7.82271233,20.3049509 11.8136666,26.8116163 C14.8143332,31.6903087 21.1889998,36.2098474 27.9416664,35.4870781 C29.5639339,35.4180243 31.1011626,34.7738559 32.2536664,33.680155 C33.3775768,32.5680354 33.9856525,31.0700413 33.9406664,29.5242317 C33.8769521,26.3038175 31.1217265,23.7283027 27.7526664,23.7398469 C26.1466378,23.7214135 24.601449,24.3264593 23.4703604,25.4166591 C22.3392717,26.5068588 21.7189934,27.9889983 21.7513332,29.5242317 L21.7513332,30.4276933 C22.3600226,30.6994047 22.9830871,30.9406539 23.6179998,31.1504626 C23.2983126,30.666829 23.1654325,30.091602 23.2423331,29.5242317 C23.2634948,27.5850458 24.6387902,25.8989906 26.6008385,25.4068433 C28.5628868,24.914696 30.6268424,25.738072 31.641069,27.4175479 C32.6552957,29.0970238 32.3691659,31.2175811 30.9423331,32.5960011 C30.0497936,33.3343198 28.9320667,33.7778732 27.7549998,33.8608473 C23.0699248,33.9766195 18.5842389,32.0482663 15.5656665,28.6207702 C11.151091,24.0089046 10.0055739,17.3381938 12.6460605,11.6189752 C15.2865471,5.89975668 21.2136743,2.21363706 27.7526664,2.22407692 C35.2482005,2.28992592 42.4079677,5.20580858 47.6506718,10.327727 C52.8933758,15.4496455 55.787673,22.3561938 55.6943329,29.522001 C55.6598886,36.6216755 52.6144688,43.4043034 47.2546663,48.3184632 C42.0719524,53.2317242 35.0511347,55.9622239 27.7526664,55.9030788 C22.7267339,55.8477796 17.7595022,54.8630038 13.1249999,53.0030787 C12.9383332,53.0030787 13.1249999,52.6416941 13.3116666,52.8223864 C17.981715,54.5240597 22.9416869,55.3818317 27.9393331,55.3520788 C35.0249577,55.2588861 41.7773301,52.4604303 46.692333,47.5800785 C51.6258333,42.7622285 54.3286763,36.2519024 54.1939996,29.5108471 C54.1067082,15.711199 42.3760415,4.57092578 27.9416664,4.57976931 C24.7187207,4.5894086 21.6008954,5.67691521 19.1286665,7.65376942 C21.9138118,6.52342646 24.9164273,5.9655646 27.9416664,6.01638475 C37.7285727,6.15605316 46.4783662,11.8803672 50.158849,20.5513712 C53.8393319,29.2223752 51.7362076,39.1572281 44.8186663,45.7776169 C40.3437817,50.0377656 34.2559112,52.3850259 27.9416664,52.284771 C22.6675136,52.289068 17.4654906,51.1133375 12.7516666,48.8516171 C8.77318695,46.9938443 5.20779759,44.4184054 2.25166665,41.2670014 C2.06499998,41.0863091 2.25166665,40.9056168 2.43833331,41.0863091 C5.24663173,43.8240021 8.4720221,46.1397218 12.0049999,47.9548478 C17.0010851,50.3759062 22.5319818,51.6152297 28.1329998,51.5686941 C34.1214824,51.4306158 39.8257248,49.0987605 44.067333,45.0548477 C48.2223087,40.9349062 50.5132415,35.4164496 50.4443329,29.6937702 C50.3672551,17.9720509 40.389181,8.51735517 28.1283331,8.54830792 C23.6384202,8.58782307 19.2631441,9.90834785 15.5633332,12.3406157 C15.140425,13.1422494 14.8267572,13.9924099 14.6299999,14.8703081 C18.3958301,11.6452356 23.2640135,9.84606742 28.3196664,9.81092335 C36.5100057,9.91945376 43.8340491,14.71183 46.9047677,21.9718012 C49.9754862,29.2317725 48.1943295,37.5442112 42.3849997,43.0650015 C38.6702054,46.6362333 33.5865382,48.595475 28.3196664,48.4857709 C22.6912442,48.4680341 17.1760548,46.9725539 12.3759999,44.16254 C6.829389,40.9597712 2.49690402,36.1479638 0.00933333378,30.4276933 C0.00933333378,30.247001 0.195999999,30.0663087 0.195999999,30.247001 C2.7553373,35.4775378 6.86264638,39.8758594 12.0096666,42.8976938 C16.90349,45.9509194 22.6723896,47.467009 28.5109998,47.2343093 C33.420614,47.2080998 38.1015133,45.2469449 41.449333,41.8135399 C44.86416,38.4896883 46.753411,34.0022673 46.699333,29.3435394 C46.6997382,24.7490207 44.7748306,20.3458533 41.354792,17.1180652 C37.9347534,13.8902772 33.3046886,12.1069466 28.4993331,12.1666157 C23.0273414,12.2079066 17.864643,14.5987966 14.4386666,18.6782314 C14.4555231,19.3553661 14.5822551,20.0258923 14.8143332,20.6658468 C18.7741528,14.8498163 26.2929963,12.2562078 33.2248168,14.315191 C40.1566373,16.3741742 44.8143791,22.5846371 44.6296663,29.522001 C44.6124943,33.6198777 42.8519343,37.5346637 39.7529997,40.3657706 C36.7298311,43.1473287 32.6974288,44.7015426 28.5016664,44.7023861 C22.3115535,44.8861414 16.2788171,42.8190665 11.6199999,38.9180013 C5.91537381,34.5378907 2.27317086,28.1637976 1.50033332,21.2079238 C1.50033332,21.0272314 1.68699999,21.0272314 1.87599999,21.2079238 C2.65966886,27.825233 6.16561585,33.8723498 11.6199999,38.0145397 C16.3462538,41.9229309 22.4377987,43.9878939 28.6836664,43.7989246 C32.4945681,43.7186773 36.1244998,42.2289751 38.810333,39.6430013 C41.4176528,37.0002848 42.8923685,33.5181435 42.9426663,29.8856164 C42.9168309,26.301559 41.3989137,22.8749357 38.7244807,20.3632701 C36.0500477,17.8516044 32.4393722,16.4617639 28.6906664,16.5010005 C23.2799636,16.5419805 18.3823657,19.5713584 16.1256665,24.2730008 C16.3636297,24.8506145 16.677242,25.3970495 17.0589999,25.8992316 C18.8157223,21.1860003 23.4529048,18.0142374 28.6859998,17.946539 C31.9662421,17.9621006 35.1030837,19.2340563 37.3948024,21.4778653 C39.6865211,23.7216743 40.9418615,26.7500795 40.8799997,29.8856164 C40.8648224,32.9406768 39.5835794,35.8654153 37.3169997,38.0190013 C34.9936824,40.1390814 31.8952112,41.3063778 28.6836664,41.2714629 C21.6352774,41.425804 14.9389614,38.3314758 10.6866666,32.9551549 C6.00572039,27.4422997 4.27400868,20.1611552 6.00133329,13.2552312 C6.00133329,13.0745388 6.37699995,13.0745388 6.18799995,13.2552312 C4.62878682,19.9053028 6.43552172,26.8691219 11.0646666,32.0516934 C15.1757848,37.2204171 21.7272339,40.0697361 28.5039998,39.636309 C31.2595332,39.54242 33.8742615,38.4488592 35.8166664,36.5779243 C37.6487583,34.6502472 38.6535469,32.1331941 38.6306664,29.5286933 C38.6061627,24.6002507 34.6790985,20.4915535 29.5471484,20.025048 C24.4151983,19.5585426 19.7485796,22.8860554 18.7529998,27.7217701 C19.1286665,28.0831548 19.6863332,28.4445394 20.0666665,28.805924 C20.4861208,24.636948 24.125814,21.4410436 28.5063331,21.3953084 C31.5109735,21.3471927 34.3091654,22.8521434 35.8262019,25.3321512 C37.3432384,27.812159 37.3432384,30.8816121 35.8262019,33.3616199 C34.3091654,35.8416277 31.5109735,37.3465784 28.5063331,37.2984628 C21.9378405,37.5832208 15.7388238,34.3875918 12.3783332,28.9843856 C7.42712014,21.9692917 7.96302005,12.6614071 13.6896666,6.20823091 C13.1273332,5.84684628 13.3139999,6.0275386 13.3139999,6.20823091" id="Shape" fill="#00C2F2"></path>
                    <path d="M75.0096649,33.4949997 C74.4731576,32.0456891 74.2192896,30.5145811 74.2606648,28.977692 C74.2192896,27.440803 74.4731576,25.9096949 75.0096649,24.4603843 C75.5320106,23.1389989 76.2933876,21.9157479 77.2589982,20.8465382 C78.2013106,19.7685254 79.4331157,18.956426 80.8219983,18.4975382 C82.2472673,17.9214425 83.7757315,17.6146421 85.3229985,17.5940767 C87.4515159,17.5247897 89.5495582,18.0925336 91.3243319,19.2180767 C93.0127145,20.3739614 94.2630322,22.0225699 94.887332,23.9160767 L102.587332,23.9160767 C102.085859,21.9951936 101.26243,20.1645912 100.148999,18.4953075 C99.0864943,16.9624036 97.7538399,15.6173777 96.2103321,14.5200767 C94.671093,13.4292207 92.9626018,12.5756413 91.1469986,11.9903844 C89.2678071,11.4126655 87.3085001,11.1081134 85.3346651,11.0869229 C82.8330402,11.0352828 80.3461239,11.4654359 78.0219983,12.351769 C75.8610406,13.1906544 73.8880758,14.4173548 72.2096648,15.9656152 C70.5202885,17.56384 69.1812834,19.4681355 68.270998,21.5670767 C66.2708505,26.0712672 66.2708505,31.1591168 68.270998,35.6633073 C69.1812834,37.7622485 70.5202885,39.666544 72.2096648,41.2647688 C73.8707461,42.8337271 75.8482791,44.0632677 78.0219983,44.878615 C80.3461239,45.7649481 82.8330402,46.1951012 85.3346651,46.1434611 C87.3085001,46.1222706 89.2678071,45.8177185 91.1469986,45.2399996 C92.978101,44.689969 94.6924925,43.8334418 96.2103321,42.7103073 C97.7538399,41.6130063 99.0864943,40.2679804 100.148999,38.7350766 C101.321981,37.0742016 102.208273,35.2439617 102.773999,33.3143074 L94.887332,33.3143074 C94.2630322,35.2078141 93.0127145,36.8564226 91.3243319,38.0123073 C89.5386265,39.1151577 87.4484186,39.6815585 85.3229985,39.6385381 C83.7736091,39.6368216 82.2412813,39.3292457 80.8219983,38.7350766 C79.4960641,38.1675012 78.2888459,37.3746347 77.2589982,36.3949996 C76.1374167,35.7509317 75.3285752,34.708116 75.0096649,33.4949997 L75.0096649,33.4949997 Z M122.828999,34.7598462 C122.909031,36.3648819 122.299601,37.9314859 121.141999,39.0964615 C120.09061,40.2223991 118.595169,40.8774122 117.016666,40.9033846 C116.169653,40.9169148 115.332199,40.7307365 114.578333,40.3613077 C113.885223,40.0445385 113.253896,39.6167542 112.711666,39.0964615 C112.158901,38.5410976 111.770723,37.8550733 111.586999,37.1088462 C111.280077,36.3624373 111.15172,35.5598337 111.211333,34.7598462 C111.131301,33.1548104 111.74073,31.5882064 112.898333,30.4232308 C113.949722,29.2972932 115.445163,28.6422801 117.023666,28.6163077 C117.813192,28.5786836 118.596469,28.7674492 119.272999,29.1583846 C119.966109,29.4751538 120.597435,29.9029381 121.139666,30.4232308 C121.692431,30.9785948 122.080609,31.664619 122.264333,32.4108462 C122.647895,33.1387861 122.840866,33.9448721 122.826666,34.7598462 L122.828999,34.7598462 Z M128.454661,39.4578467 C129.052031,37.956425 129.367973,36.3661058 129.387995,34.7598466 C129.367973,33.1535873 129.052031,31.5632681 128.454661,30.0618465 C127.871894,28.6335642 126.976957,27.3406576 125.829662,26.2695387 C124.671619,25.2244877 123.340775,24.369725 121.890995,23.7398463 C118.762802,22.5350832 115.268188,22.5350832 112.139996,23.7398463 C109.15719,24.9274542 106.79421,27.2050383 105.576329,30.066308 C104.97896,31.5677297 104.663017,33.1580489 104.642996,34.7643081 C104.644873,36.3722571 104.961431,37.9656745 105.576329,39.4623082 C106.159096,40.8905904 107.054034,42.1834971 108.201329,43.254616 C109.359372,44.2996669 110.690216,45.1544296 112.139996,45.7843083 C115.268188,46.9890715 118.762802,46.9890715 121.890995,45.7843083 C124.873801,44.5967005 127.236781,42.3191163 128.454661,39.4578467 L128.454661,39.4578467 Z M142.893331,29.8789225 L145.707331,29.8789225 L145.707331,23.5569225 C145.099694,23.3991797 144.469042,23.3381329 143.840665,23.3762302 C142.502026,23.3474781 141.188621,23.7272276 140.090998,24.460384 C138.988607,25.1244587 138.186173,26.1590134 137.841665,27.360384 L137.841665,23.7465378 L131.455332,23.7465378 L131.455332,46.1479226 L138.018998,46.1479226 L138.018998,35.4848456 C137.852541,34.0148593 138.2524,32.5372813 139.143665,31.3289225 C140.067156,30.2846241 141.470441,29.7436418 142.893331,29.883384 L142.893331,29.8789225 Z M160.895001,46.1434619 C161.522893,46.1638045 162.150784,46.103025 162.761668,45.9627696 L162.761668,40.544231 C162.439957,40.5326873 162.120003,40.5946301 161.828335,40.7249233 L159.765668,40.7249233 C159.258162,40.7542091 158.749388,40.692935 158.265335,40.544231 C157.703001,40.3635387 157.516335,40.0021541 157.516335,39.2793848 L157.516335,29.1583847 L162.579668,29.1583847 L162.579668,23.7376154 L157.525668,23.7376154 L157.525668,15.242846 L150.957335,15.242846 L150.957335,23.7376154 L147.394335,23.7376154 L147.394335,29.1583847 L150.957335,29.1583847 L150.957335,41.4476926 C150.924584,42.3804516 151.117002,43.3078886 151.519668,44.1580772 C151.867835,44.7650859 152.3878,45.2660614 153.020001,45.6036157 C153.661145,45.9516741 154.358116,46.1958965 155.082668,46.3263849 C155.885443,46.4762733 156.703656,46.5369068 157.521001,46.5070773 L159.208001,46.5070773 C159.746585,46.301397 160.316111,46.1793946 160.895001,46.1456926 L160.895001,46.1434619 Z M170.825668,32.4130767 C171.207672,29.9730073 173.503767,28.2344339 176.075668,28.4378459 C177.397605,28.3547438 178.693817,28.8148922 179.638668,29.702692 C180.550751,30.4413855 181.150413,31.4722209 181.325668,32.6026921 L170.825668,32.6026921 L170.825668,32.4130767 Z M171.012327,36.5690003 L188.264995,36.5690003 L188.264995,36.3950003 C188.272565,34.3136184 187.95805,32.2426139 187.331661,30.249231 C186.72713,28.7233752 185.83769,27.3152056 184.706661,26.0933079 C183.589475,25.0440837 182.244923,24.2422001 180.767994,23.7443079 C179.329626,23.2386911 177.806359,22.9899238 176.273994,23.0103848 C174.605074,23.0309313 172.953474,23.3369101 171.397327,23.9138463 C169.941073,24.4354547 168.64976,25.3066321 167.647661,26.4435387 C166.556342,27.5232599 165.724257,28.8173896 165.209327,30.2358464 C164.611958,31.737268 164.296016,33.3275872 164.275994,34.9338464 C164.277871,36.5417954 164.594429,38.1352128 165.209327,39.6318464 C165.792094,41.0601286 166.687032,42.3530353 167.834327,43.4241541 C168.992371,44.4692051 170.323214,45.3239678 171.772994,45.9538465 C173.324015,46.5476075 174.978921,46.8541989 176.649661,46.857308 C179.070958,46.8981448 181.461931,46.337821 183.588994,45.2310772 C185.708052,44.0205299 187.354424,42.1801445 188.276661,39.9910003 L181.325661,39.2793849 C180.801203,39.9673441 180.172014,40.5763963 179.458994,41.086308 C178.670796,41.5396114 177.747623,41.7302515 176.833994,41.6283849 C175.512057,41.7114869 174.215845,41.2513386 173.270994,40.3635387 C172.080728,39.3895665 171.284878,38.0477875 171.021661,36.571231 L171.012327,36.5690003 Z M190.892331,45.9672312 L197.455997,45.9672312 L197.455997,11.8096921 L190.892331,11.8096921 L190.892331,45.9672312 Z M200.458994,45.9672312 L207.02266,45.9672312 L207.02266,11.8096921 L200.458994,11.8096921 L200.458994,45.9672312 Z M219.403333,23.5569229 L209.652333,23.5569229 L209.652333,28.9776919 L212.839666,28.9776919 L212.839666,45.9672296 L219.403333,45.9672296 L219.403333,23.5569229 Z M218.841001,18.8589229 C219.649742,18.0878211 220.119685,17.0503924 220.154667,15.9589229 C220.11963,15.4013379 219.992851,14.8525218 219.779001,14.3326921 C219.579302,13.8452002 219.25906,13.4112101 218.845667,13.067846 C218.491177,12.6690037 218.040247,12.3588809 217.532001,12.1643845 C216.993417,11.9587042 216.423891,11.8367018 215.845001,11.8029998 C214.693787,11.7571903 213.585439,12.2243829 212.844334,13.067846 C212.08998,13.8583327 211.686677,14.898268 211.719667,15.967846 C211.686677,17.0374239 212.08998,18.0773593 212.844334,18.8678459 C213.657434,19.5910041 214.734862,19.9802834 215.845001,19.9519998 C216.960771,20.0137444 218.051491,19.6196625 218.845667,18.8678459 L218.841001,18.8589229 Z M241.343662,26.2695379 C240.059558,25.0234692 238.435406,24.1469979 236.655996,23.7398456 C235.081905,23.2488345 233.435036,23.0047524 231.779329,23.0170763 C230.507291,23.0066597 229.241608,23.1896353 228.029662,23.5591533 C227.016099,23.8924083 226.065765,24.3805901 225.215663,25.0046918 C224.535851,25.6367184 223.966305,26.3687582 223.528663,27.1729995 C223.162534,28.034022 222.971674,28.9539444 222.966329,29.8833842 L222.966329,30.0640765 C222.911543,31.4382713 223.378087,32.7850977 224.279996,33.8563843 C225.35543,35.0814315 226.793637,35.9664641 228.405329,36.3949997 L231.968329,37.4791536 C232.701734,37.6736001 233.398027,37.9785809 234.030996,38.3826152 C234.402355,38.7056891 234.607728,39.1676301 234.593329,39.6474613 C234.650666,40.084025 234.429193,40.5110149 234.030996,40.7316152 C233.655329,41.0929998 233.097662,41.0929998 232.164329,41.0929998 C231.595414,41.1223633 231.025344,41.0613038 230.477329,40.9123075 C229.914996,40.7316152 229.352662,40.5509229 228.610662,40.3702306 C228.010308,40.1391337 227.443367,39.8355122 226.923663,39.466769 C226.361329,39.1053844 225.990329,38.7439998 225.423329,38.3826152 L221.860329,42.899923 C222.467087,43.2643762 223.032473,43.6882804 223.547329,44.1647692 L225.796663,45.248923 C226.729996,45.6103077 227.663329,45.791 228.610662,46.1523846 C229.785104,46.3715018 230.977275,46.4924201 232.173662,46.5137692 C233.587986,46.5705416 234.997639,46.3235667 236.298996,45.791 C237.357937,45.4685088 238.322151,44.9112828 239.112996,44.1647692 C239.84063,43.5029024 240.415287,42.7027428 240.799996,41.8157691 C241.164921,41.0177166 241.356244,40.1570387 241.362329,39.2860767 C241.351916,37.836045 240.822434,36.4331474 239.861996,35.3108459 C238.589774,33.8847028 236.885777,32.8713894 234.985329,32.4108458 L231.235662,31.1459996 C230.673329,30.9653073 230.110996,30.784615 229.921996,30.4232303 C229.686257,30.1058603 229.555407,29.7282333 229.546329,29.3390765 C229.538453,28.9600989 229.756506,28.6097682 230.108662,28.4356149 C230.484329,28.0742303 231.041996,28.0742303 231.795662,28.0742303 C232.698168,28.0983977 233.588183,28.2821907 234.420662,28.6163072 C235.538877,29.0175062 236.559865,29.6323185 237.421329,30.4232303 L241.343662,26.2695379 Z M241.343669,13.4381537 L243.593002,13.4381537 L243.593002,11.8096921 L237.405002,11.8096921 L237.405002,13.4359229 L239.654335,13.4359229 L239.654335,17.7725385 L241.341335,17.7725385 L241.343669,13.4381537 Z M250.910326,17.7747691 L250.910326,11.8096921 L248.660993,11.8096921 L247.536326,14.7096921 L246.411659,11.8096921 L244.162326,11.8096921 L244.162326,17.7725383 L245.849326,17.7725383 L245.849326,13.9802306 L246.973993,16.6906152 L248.098659,16.6906152 L249.225659,13.9779998 L249.225659,17.7703075 L250.910326,17.7747691 Z" id="Shape-2" fill="#010101"></path>
                </g>
            </g>
        </g>
    </g>
</svg>