<?xml version="1.0" encoding="UTF-8"?>
<svg width="7px" height="11px" viewBox="0 0 7 11" version="1.1" xmlns="http://www.w3.org/2000/svg" xmlns:xlink="http://www.w3.org/1999/xlink">
    <!-- Generator: sketchtool 54.1 (76490) - https://sketchapp.com -->
    <title>2D105A4C-E123-4AF7-BCA8-39B7BDDB64C1</title>
    <desc>Created with sketchtool.</desc>
    <g id="Page-1" stroke="none" stroke-width="1" fill="none" fill-rule="evenodd">
        <g id="alerts-list" transform="translate(-28.000000, -205.000000)" fill="#00A7E0" fill-rule="nonzero">
            <g id="new_alert_row" transform="translate(0.000000, 128.000000)">
                <g id="Group_87" transform="translate(28.000000, 73.000000)">
                    <g id="Location_1" transform="translate(0.000000, 4.000000)">
                        <g id="Icons" transform="translate(0.000000, 0.932000)">
                            <path d="M3.5,0 C1.56700338,-1.18361906e-16 2.36723813e-16,1.56700338 0,3.5 C0,6.125 3.5,10 3.5,10 C3.5,10 7,6.125 7,3.5 C7,1.56700338 5.43299662,1.18361906e-16 3.5,0 Z M3.5,4.75 C2.80964406,4.75 2.25,4.19035594 2.25,3.5 C2.25,2.80964406 2.80964406,2.25 3.5,2.25 C4.19035594,2.25 4.75,2.80964406 4.75,3.5 C4.75,4.19035594 4.19035594,4.75 3.5,4.75 L3.5,4.75 Z" id="Path_647"></path>
                        </g>
                    </g>
                </g>
            </g>
        </g>
    </g>
</svg>