<?xml version="1.0" encoding="UTF-8"?>
<svg width="20px" height="20px" viewBox="0 0 20 20" version="1.1" xmlns="http://www.w3.org/2000/svg" xmlns:xlink="http://www.w3.org/1999/xlink">
    <!-- Generator: sketchtool 54.1 (76490) - https://sketchapp.com -->
    <title>0DFD8299-57EF-4B31-A355-35560021AF82</title>
    <desc>Created with sketchtool.</desc>
    <g id="Page-1" stroke="none" stroke-width="1" fill="none" fill-rule="evenodd" opacity="1">
        <g id="alerts-list" transform="translate(-47.000000, -768.000000)" fill="#00A7E0" fill-rule="nonzero">
            <g id="alerts_list">
                <g id="Navigation_Bar_6" transform="translate(0.000000, 756.000000)">
                    <g id="fav" transform="translate(47.000000, 12.000000)">
                        <g id="Icons-18">
                            <path d="M9.99,4.44087516e-16 C5.219815,0.00613424309 1.11808183,3.38066944 0.192791769,8.06025712 C-0.732498289,12.7398448 1.77629795,17.4214732 6.18518525,19.242576 C10.5940726,21.0636787 15.6754145,19.5171774 18.3222413,15.5486751 C20.9690681,11.5801727 20.4443818,6.29468251 17.069,2.924 C15.1908852,1.04849989 12.644205,-0.00341318815 9.99,4.44087516e-16 Z M14.23,16 L10,13.45 L5.77,16 L6.89,11.19 L3.16,7.96 L8.08,7.54 L10,3 L11.92,7.53 L16.84,7.95 L13.11,11.18 L14.23,16 Z" id="Path_644"></path>
                        </g>
                    </g>
                </g>
            </g>
        </g>
    </g>
</svg>