<?xml version="1.0" encoding="UTF-8"?>
<svg width="12px" height="12px" viewBox="0 0 12 12" version="1.1" xmlns="http://www.w3.org/2000/svg" xmlns:xlink="http://www.w3.org/1999/xlink">
    <!-- Generator: sketchtool 54.1 (76490) - https://sketchapp.com -->
    <title>2481691F-CE6F-416D-B18C-B067E0F62365</title>
    <desc>Created with sketchtool.</desc>
    <g id="app" stroke="none" stroke-width="1" fill="none" fill-rule="evenodd">
        <g id="document-metadata" transform="translate(-256.000000, -347.000000)" fill="#00A7E0" fill-rule="nonzero">
            <g id="icons-/-document-/-idrac" transform="translate(256.000000, 347.000000)">
                <path d="M6,0 C7.59129894,9.74389576e-17 9.11742242,0.632141042 10.2426407,1.75735931 C11.367859,2.88257758 12,4.40870106 12,6 C12,9.3137085 9.3137085,12 6,12 C2.6862915,12 -4.05812251e-16,9.3137085 0,6 C4.05812251e-16,2.6862915 2.6862915,-2.02906125e-16 6,0 Z M7.000075,2 L3,2 L3,10 L9.40009,10 L9.40009,4.400015 L7.000075,2 Z M7.80003,8.40009 L4.60006,8.40009 L4.60006,7.599985 L7.80003,7.599985 L7.80003,8.40009 Z M7.80003,6.80003 L4.60006,6.80003 L4.60006,6.000075 L7.80003,6.000075 L7.80003,6.80003 Z M6.6000225,4.8000675 L6.6000225,2.60000375 L8.80008625,4.8000675 L6.6000225,4.8000675 Z" id="forms"></path>
            </g>
        </g>
    </g>
</svg>