<?xml version="1.0" encoding="UTF-8"?>
<svg width="12px" height="12px" viewBox="0 0 12 12" version="1.1" xmlns="http://www.w3.org/2000/svg" xmlns:xlink="http://www.w3.org/1999/xlink">
    <!-- Generator: sketchtool 54.1 (76490) - https://sketchapp.com -->
    <title>C859AB66-AAFC-417D-B007-F3CA1523FF1A</title>
    <desc>Created with sketchtool.</desc>
    <g id="Page-1" stroke="none" stroke-width="1" fill="none" fill-rule="evenodd">
        <g id="alert_document" transform="translate(-237.000000, -179.000000)" fill="#00A7E0" fill-rule="nonzero">
            <g id="icons-/-document-/-idrac" transform="translate(237.000000, 179.000000)">
                <path d="M6,12 C2.6878906,11.9961426 0.00385738115,9.3121094 0,6 C0.00385738115,2.6878906 2.6878906,0.00385738115 6,0 C9.31142545,0.00550529063 11.9944947,2.68857455 12,6 C11.9961426,9.3121094 9.3121094,11.9961426 6,12 Z M4.764,7.46 L6.164,7.46 L5.888,9.8 L6.729,9.8 L7.004,7.46 L8.132,7.46 L8.132,6.548 L7.112,6.548 L7.305,5 L8.372,5 L8.372,4.088 L7.412,4.088 L7.664,2 L6.849,2 L6.573,4.088 L5.173,4.088 L5.425,2 L4.597,2 L4.333,4.088 L3.24,4.088 L3.24,5 L4.213,5 L4.02,6.548 L3,6.548 L3,7.46 L3.923,7.46 L3.635,9.8 L4.476,9.8 L4.764,7.461 L4.764,7.46 Z M6.276,6.548 L4.86,6.548 L5.052,5 L6.468,5 L6.276,6.547 L6.276,6.548 Z" id="Subtraction_1"></path>
            </g>
        </g>
    </g>
</svg>