<?xml version="1.0" encoding="UTF-8"?>
<svg width="12px" height="12px" viewBox="0 0 12 12" version="1.1" xmlns="http://www.w3.org/2000/svg" xmlns:xlink="http://www.w3.org/1999/xlink">
    <!-- Generator: sketchtool 54.1 (76490) - https://sketchapp.com -->
    <title>3651423A-35F6-4E0B-B540-3BDF25DB97B3</title>
    <desc>Created with sketchtool.</desc>
    <g id="app" stroke="none" stroke-width="1" fill="none" fill-rule="evenodd">
        <g id="document-metadata" transform="translate(-237.000000, -263.000000)" fill="#00A7E0" fill-rule="nonzero">
            <g id="icons-/-document-/-tick-copy" transform="translate(237.000000, 263.000000)">
                <path d="M6,0 C7.59129894,9.74389576e-17 9.11742242,0.632141042 10.2426407,1.75735931 C11.367859,2.88257758 12,4.40870106 12,6 C12,9.3137085 9.3137085,12 6,12 C2.6862915,12 -4.05812251e-16,9.3137085 0,6 C4.05812251e-16,2.6862915 2.6862915,-2.02906125e-16 6,0 Z M6.00020845,2 C4.38236946,1.99993933 2.92379959,2.97445534 2.30463737,4.46912625 C1.68547516,5.96379717 2.02765616,7.68426794 3.17161963,8.82827431 C4.31558309,9.97228068 6.03604103,10.3145262 7.53073517,9.69542003 C9.0254293,9.07631386 10,7.61778054 10,5.99994155 C9.99917224,3.79123636 8.20891361,2.00091058 6.00020845,2 Z M5.60016929,9.17175555 C4.00028262,8.97232234 2.79962005,7.61221033 2.80019521,5.99994155 C2.80153064,5.75887028 2.82970344,5.51869716 2.88419293,5.28386096 L4.80024098,7.19990901 L4.80024098,7.59979817 C4.80147654,8.04109792 5.15886979,8.39855818 5.60016929,8.39987648 L5.60016929,9.17175555 Z M8.36009446,8.1558331 C8.25600949,7.82393688 7.94789715,7.59852294 7.60006507,7.59979817 L7.20017591,7.59979817 L7.20017591,6.39983071 C7.19943467,6.17922728 7.02074045,6.00060006 6.80013676,5.99994155 L4.40020183,5.99994155 L4.40020183,5.19986324 L5.20013014,5.19986324 C5.42073383,5.19920473 5.59942805,5.02057751 5.60016929,4.79997408 L5.60016929,3.99989578 L6.4000976,3.99989578 C6.84139735,3.99866022 7.19885761,3.64126697 7.20017591,3.19996747 L7.20017591,3.03602191 C8.17181204,3.42741098 8.88966093,4.27050984 9.12111233,5.2921225 C9.35256374,6.31373516 9.06817336,7.38389628 8.36009446,8.1558331 Z" id="languages"></path>
            </g>
        </g>
    </g>
</svg>