<?xml version="1.0" encoding="UTF-8"?>
<svg width="108px" height="25px" viewBox="0 0 108 25" version="1.1" xmlns="http://www.w3.org/2000/svg" xmlns:xlink="http://www.w3.org/1999/xlink">
    <!-- Generator: sketchtool 54.1 (76490) - https://sketchapp.com -->
    <title>02BC04EA-DC6E-40E3-A4EC-24CFA77E2436</title>
    <desc>Created with sketchtool.</desc>
    <g id="Page-1" stroke="none" stroke-width="1" fill="none" fill-rule="evenodd">
        <g id="interests" transform="translate(-134.000000, -29.000000)" fill-rule="nonzero">
            <g id="top-header-/-logo-+-back">
                <g id="cortellis-logo-/-blue" transform="translate(134.000000, 28.000000)">
                    <g id="Cortellis_Logo_RGB_Color-2">
                        <path d="M11.894,14.044 C12.222494,14.0480558 12.5209046,13.8532979 12.6494341,13.5509654 C12.7779636,13.2486329 12.7111536,12.8986101 12.4803029,12.6648737 C12.2494521,12.4311373 11.9002862,12.3599845 11.5963805,12.4847486 C11.2924747,12.6095126 11.094025,12.905481 11.094,13.234 C11.1216378,13.6655964 11.4627802,14.0110031 11.894,14.044 M5.706,2.783 C3.60792389,5.43463844 3.35259103,9.10221908 5.063,12.019 C6.349,14.206 9.081,16.232 11.975,15.908 C12.6702575,15.8770448 13.3290698,15.5882797 13.823,15.098 C14.3046759,14.5994637 14.5652798,13.9279491 14.546,13.235 C14.5186939,11.7913661 13.3378829,10.636825 11.894,10.642 C11.205702,10.6337368 10.5434782,10.9049642 10.058726,11.3936744 C9.57397368,11.8823846 9.30814012,12.5467919 9.322,13.235 L9.322,13.64 C9.58286691,13.7618017 9.84989453,13.8699479 10.122,13.964 C9.98499117,13.7471987 9.92804259,13.4893384 9.961,13.235 C9.97006929,12.3657098 10.5594816,11.609892 11.4003594,11.3892742 C12.2412373,11.1686564 13.1257897,11.537756 13.5604583,12.2906245 C13.9951268,13.043493 13.8724998,13.9940876 13.261,14.612 C12.8784831,14.9429704 12.3994573,15.1418047 11.895,15.179 C9.8871107,15.2308979 7.96467386,14.3664637 6.671,12.83 C4.77903904,10.7626121 4.28810311,7.77229352 5.41974026,5.20850599 C6.5513774,2.64471845 9.09157476,0.992320061 11.894,0.997 C15.1063717,1.02651851 18.1748434,2.33363828 20.4217166,4.62967061 C22.6685898,6.92570295 23.9090029,10.0217417 23.869,13.234 C23.8542381,16.4166126 22.5490582,19.4571009 20.252,21.66 C18.0308369,23.8624962 15.021915,25.0865133 11.894,25.06 C9.7400289,25.0352107 7.61121528,24.5937595 5.625,23.76 C5.545,23.76 5.625,23.598 5.705,23.679 C7.70644936,24.441819 9.83215161,24.8263375 11.974,24.813 C15.0106963,24.7712239 17.9045702,23.5167438 20.011,21.329 C22.1253573,19.1692742 23.2837186,16.2508522 23.226,13.229 C23.1885894,7.04295107 18.1611608,2.04903566 11.975,2.053 C10.5937375,2.05732106 9.25752665,2.544824 8.198,3.431 C9.3916337,2.92429455 10.6784689,2.67421855 11.975,2.697 C16.1693884,2.75960998 19.9192999,5.32568168 21.4966498,9.21268334 C23.0739996,13.099685 22.1726606,17.5532396 19.208,20.521 C17.2901923,22.4307217 14.6811049,23.4829418 11.975,23.438 C9.71464875,23.4399262 7.4852103,22.9128747 5.465,21.899 C3.75993729,21.0662054 2.23191327,19.9116983 0.965,18.499 C0.885,18.418 0.965,18.337 1.045,18.418 C2.24855648,19.6452417 3.63086664,20.6833229 5.145,21.497 C7.28617938,22.582302 9.65656372,23.1378608 12.057,23.117 C14.6234926,23.0551028 17.0681679,22.0097884 18.886,20.197 C20.6667039,18.3501297 21.6485323,15.8763389 21.619,13.311 C21.5859666,8.05643638 17.3096491,3.81812463 12.055,3.832 C10.1307516,3.84971369 8.25563326,4.44167305 6.67,5.532 C6.48875363,5.89135299 6.35432456,6.27245942 6.27,6.666 C7.88392726,5.22027789 9.97029157,4.41375424 12.137,4.398 C15.6471454,4.44665156 18.7860212,6.59495809 20.1020435,9.84942782 C21.4180657,13.1038976 20.6547128,16.8301631 18.165,19.305 C16.5729453,20.905897 14.3942308,21.7841777 12.137,21.735 C9.72481902,21.727049 7.36116639,21.0566614 5.304,19.797 C2.92688102,18.3612761 1.07010173,16.2042591 0.004,13.64 C0.004,13.559 0.084,13.478 0.084,13.559 C1.18085885,15.9037233 2.94113418,17.8753847 5.147,19.23 C7.2443529,20.5986873 9.71673847,21.2783137 12.219,21.174 C14.3231204,21.1622509 16.3292201,20.2831125 17.764,18.744 C19.2274973,17.2539976 20.0371763,15.2423952 20.014,13.154 C20.0141737,11.0943882 19.1892133,9.12055463 17.7234824,7.67361521 C16.2577516,6.22667578 14.2734381,5.42725179 12.214,5.454 C9.86886068,5.4725097 7.65627562,6.54428795 6.188,8.373 C6.19522425,8.67654313 6.24953794,8.97712386 6.349,9.264 C8.04606555,6.656814 11.2684271,5.49416194 14.2392073,6.4171544 C17.2099876,7.34014685 19.2061626,10.1241473 19.127,13.234 C19.1196406,15.0709792 18.3651149,16.8258832 17.037,18.095 C15.7413563,19.3419053 14.0131839,20.0386218 12.215,20.039 C9.56209444,20.121373 6.97663595,19.1947533 4.98,17.446 C2.53516022,15.4825022 0.974216092,12.6251503 0.643,9.507 C0.643,9.426 0.723,9.426 0.804,9.507 C1.13985809,12.4733799 2.64240682,15.1841563 4.98,17.041 C7.00553738,18.7930374 9.61619952,19.7187104 12.293,19.634 C13.9262436,19.5980271 15.4819286,18.9302296 16.633,17.771 C17.7504228,16.586334 18.3824438,15.0253742 18.404,13.397 C18.3929277,11.7903537 17.7423917,10.2542812 16.5962061,9.12836215 C15.4500206,8.00244312 13.9025882,7.37941117 12.296,7.397 C9.97712733,7.41537036 7.87815678,8.77336728 6.911,10.881 C7.0129842,11.1399303 7.14738947,11.3848839 7.311,11.61 C8.06388105,9.49717223 10.051245,8.07534755 12.294,8.045 C13.6998182,8.05197587 15.0441788,8.62216288 16.026344,9.62800826 C17.0085092,10.6338536 17.5465122,11.9914146 17.52,13.397 C17.5134955,14.7665098 16.9643913,16.0775994 15.993,17.043 C14.9972926,17.9933807 13.6693763,18.5166515 12.293,18.501 C9.2722618,18.5701874 6.40241209,17.1830748 4.58,14.773 C2.57388019,12.3017201 1.83171802,9.03775894 2.572,5.942 C2.572,5.861 2.733,5.861 2.652,5.942 C1.9837658,8.92306647 2.75808076,12.0447784 4.742,14.368 C6.50390784,16.685014 9.31167175,17.9622949 12.216,17.768 C13.3969429,17.7259118 14.5175408,17.2356949 15.35,16.397 C16.1351822,15.5328689 16.5658059,14.4045348 16.556,13.237 C16.5454985,11.0276982 14.8624709,9.18586851 12.6630637,8.97674539 C10.4636565,8.76762227 8.46367705,10.2592659 8.037,12.427 C8.198,12.589 8.437,12.751 8.6,12.913 C8.77976612,11.0441487 10.3396347,9.61150197 12.217,9.591 C13.504703,9.56943092 14.7039281,10.244064 15.3540866,11.3557916 C16.0042452,12.4675192 16.0042452,13.8434808 15.3540866,14.9552084 C14.7039281,16.066936 13.504703,16.7415691 12.217,16.72 C9.40193173,16.8476501 6.74521024,15.4151268 5.305,12.993 C3.18305152,9.84830288 3.41272291,5.67580302 5.867,2.783 C5.626,2.621 5.706,2.702 5.706,2.783" id="Shape" fill="#00C2F2"></path>
                        <path d="M32.147,15.015 C31.9170683,14.3653091 31.8082677,13.6789503 31.826,12.99 C31.8082677,12.3010497 31.9170683,11.6146909 32.147,10.965 C32.3708625,10.3726548 32.6971669,9.82430092 33.111,9.345 C33.5148481,8.86175287 34.0427646,8.49770833 34.638,8.292 C35.2488295,8.0337502 35.9038856,7.89621899 36.567,7.887 C37.4792217,7.85594031 38.3783827,8.11044621 39.139,8.615 C39.8625925,9.13315522 40.3984429,9.87218661 40.666,10.721 L43.966,10.721 C43.7510829,9.85991449 43.3981847,9.03929963 42.921,8.291 C42.4656409,7.60383621 41.8945033,7.00089356 41.233,6.509 C40.5733261,6.01999559 39.8411156,5.63735655 39.063,5.375 C38.2576322,5.11602257 37.4179293,4.9794992 36.572,4.97 C35.499875,4.94685099 34.4340538,5.13967825 33.438,5.537 C32.5118753,5.91305208 31.666319,6.46295222 30.947,7.157 C30.2229816,7.87344562 29.6491223,8.72709535 29.259,9.668 C28.4017939,11.6871199 28.4017939,13.9678801 29.259,15.987 C29.6491223,16.9279047 30.2229816,17.7815544 30.947,18.498 C31.658892,19.2013261 32.5064061,19.7524995 33.438,20.118 C34.4340538,20.5153217 35.499875,20.708149 36.572,20.685 C37.4179293,20.6755008 38.2576322,20.5389774 39.063,20.28 C39.8477581,20.0334346 40.5824973,19.6494741 41.233,19.146 C41.8945033,18.6541064 42.4656409,18.0511638 42.921,17.364 C43.4237068,16.6194699 43.8035459,15.7990175 44.046,14.934 L40.666,14.934 C40.3984429,15.7828134 39.8625925,16.5218448 39.139,17.04 C38.3736977,17.5343812 37.4778943,17.788285 36.567,17.769 C35.902976,17.7682305 35.2462641,17.6303517 34.638,17.364 C34.0697425,17.1095697 33.5523633,16.7541468 33.111,16.315 C32.6303222,16.0262799 32.2836759,15.5588108 32.147,15.015 L32.147,15.015 Z M52.641,15.582 C52.6752992,16.3014988 52.4141152,17.0037695 51.918,17.526 C51.4674045,18.0307306 50.8265011,18.3243572 50.15,18.336 C49.7869947,18.3420653 49.4280856,18.258606 49.105,18.093 C48.8079529,17.951 48.5373845,17.7592346 48.305,17.526 C48.0681007,17.2770437 47.9017387,16.9695156 47.823,16.635 C47.6914618,16.3004029 47.6364515,15.9406151 47.662,15.582 C47.6277008,14.8625012 47.8888848,14.1602305 48.385,13.638 C48.8355955,13.1332694 49.4764989,12.8396428 50.153,12.828 C50.4913682,12.811134 50.8270586,12.8957531 51.117,13.071 C51.4140471,13.213 51.6846155,13.4047654 51.917,13.638 C52.1538993,13.8869563 52.3202613,14.1944844 52.399,14.529 C52.5633837,14.8553179 52.6460856,15.2166668 52.64,15.582 L52.641,15.582 Z M55.052,17.688 C55.3080154,17.0149489 55.4434193,16.3020472 55.452,15.582 C55.4434193,14.8619528 55.3080154,14.1490511 55.052,13.476 C54.8022427,12.8357356 54.4186979,12.2561567 53.927,11.776 C53.4306958,11.3075289 52.8603342,10.9243594 52.239,10.642 C50.8983459,10.1019338 49.4006541,10.1019338 48.06,10.642 C46.7816546,11.1743759 45.7689488,12.1953619 45.247,13.478 C44.9909846,14.1510511 44.8555807,14.8639528 44.847,15.584 C44.8478045,16.3048047 44.9834722,17.0190953 45.247,17.69 C45.4967573,18.3302644 45.8803021,18.9098433 46.372,19.39 C46.8683042,19.8584711 47.4386658,20.2416406 48.06,20.524 C49.4006541,21.0640662 50.8983459,21.0640662 52.239,20.524 C53.5173454,19.9916241 54.5300512,18.9706381 55.052,17.688 L55.052,17.688 Z M61.24,13.394 L62.446,13.394 L62.446,10.56 C62.1855841,10.4892877 61.9153047,10.4619219 61.646,10.479 C61.0722979,10.4661112 60.5094097,10.6363437 60.039,10.965 C59.5665467,11.2626887 59.2226464,11.7264545 59.075,12.265 L59.075,10.645 L56.338,10.645 L56.338,20.687 L59.151,20.687 L59.151,15.907 C59.0796613,15.2480406 59.2510294,14.5856781 59.633,14.044 C60.0287818,13.5758663 60.6301899,13.3333569 61.24,13.396 L61.24,13.394 Z M68.955,20.685 C69.2240965,20.6941191 69.4931927,20.6668731 69.755,20.604 L69.755,18.175 C69.617124,18.1698252 69.4800006,18.1975927 69.355,18.256 L68.471,18.256 C68.2534975,18.2691281 68.0354514,18.2416604 67.828,18.175 C67.587,18.094 67.507,17.932 67.507,17.608 L67.507,13.071 L69.677,13.071 L69.677,10.641 L67.511,10.641 L67.511,6.833 L64.696,6.833 L64.696,10.641 L63.169,10.641 L63.169,13.071 L64.696,13.071 L64.696,18.58 C64.6819638,18.9981333 64.764429,19.4138809 64.937,19.795 C65.0862142,20.0671073 65.3090566,20.2916825 65.58,20.443 C65.8547757,20.5990262 66.1534776,20.7085052 66.464,20.767 C66.8080465,20.8341913 67.1587089,20.8613719 67.509,20.848 L68.232,20.848 C68.4628216,20.7557985 68.7069043,20.7011078 68.955,20.686 L68.955,20.685 Z M73.211,14.53 C73.374716,13.4361758 74.358757,12.6568153 75.461,12.748 C76.0275447,12.7107474 76.583064,12.9170208 76.988,13.315 C77.378893,13.6461385 77.6358909,14.1082371 77.711,14.615 L73.211,14.615 L73.211,14.53 Z M73.291,16.393 L80.685,16.393 L80.685,16.315 C80.6882444,15.3819668 80.5534522,14.4535855 80.285,13.56 C80.0259152,12.8759957 79.6447265,12.2447473 79.16,11.697 C78.6812059,11.2266581 78.1049693,10.8671931 77.472,10.644 C76.8555563,10.4173442 76.2027279,10.3058278 75.546,10.315 C74.8307483,10.3242105 74.1229199,10.4613734 73.456,10.72 C72.8318908,10.9538244 72.2784709,11.3443522 71.849,11.854 C71.3812919,12.3380129 71.0246843,12.9181401 70.804,13.554 C70.5479846,14.2270511 70.4125807,14.9399528 70.404,15.66 C70.4048045,16.3808047 70.5404722,17.0950953 70.804,17.766 C71.0537573,18.4062644 71.4373021,18.9858433 71.929,19.466 C72.4253042,19.9344711 72.9956658,20.3176406 73.617,20.6 C74.2817232,20.8661687 74.9909687,21.0036063 75.707,21.005 C76.7446987,21.0233062 77.7694013,20.7721265 78.681,20.276 C79.5891677,19.7333409 80.2947555,18.9083405 80.69,17.927 L77.711,17.608 C77.4862324,17.9163955 77.2165797,18.1894189 76.911,18.418 C76.5732005,18.621205 76.1775552,18.7066644 75.786,18.661 C75.2194553,18.6982526 74.663936,18.4919792 74.259,18.094 C73.7488859,17.6573917 73.4078073,17.0559046 73.295,16.394 L73.291,16.393 Z M81.811,20.606 L84.624,20.606 L84.624,5.294 L81.811,5.294 L81.811,20.606 Z M85.911,20.606 L88.724,20.606 L88.724,5.294 L85.911,5.294 L85.911,20.606 Z M94.03,10.56 L89.851,10.56 L89.851,12.99 L91.217,12.99 L91.217,20.606 L94.03,20.606 L94.03,10.56 Z M93.789,8.454 C94.1356034,8.10833371 94.3370077,7.64327943 94.352,7.154 C94.3369842,6.90404812 94.2826503,6.65802711 94.191,6.425 C94.1054151,6.20646912 93.9681683,6.01192182 93.791,5.858 C93.6390758,5.67920865 93.44582,5.54018804 93.228,5.453 C92.9971784,5.3607985 92.7530957,5.30610777 92.505,5.291 C92.0116226,5.27046468 91.5366165,5.47989584 91.219,5.858 C90.8957056,6.2123561 90.7228611,6.67853402 90.737,7.158 C90.7228611,7.63746598 90.8957056,8.1036439 91.219,8.458 C91.5674715,8.78217433 92.0292263,8.95667885 92.505,8.944 C92.9831872,8.97167863 93.4506387,8.79502123 93.791,8.458 L93.789,8.454 Z M103.433,11.776 C102.88267,11.2174175 102.186604,10.8245166 101.424,10.642 C100.74939,10.4218916 100.043589,10.3124755 99.334,10.318 C98.7888408,10.3133305 98.2464052,10.395354 97.727,10.561 C97.2926155,10.7103902 96.8853298,10.9292303 96.521,11.209 C96.229652,11.4923223 95.9855608,11.820478 95.798,12.181 C95.6410876,12.5669756 95.5592906,12.9793546 95.557,13.396 L95.557,13.477 C95.53352,14.0930183 95.7334677,14.6967681 96.12,15.177 C96.5809002,15.7261591 97.1972746,16.1228978 97.888,16.315 L99.415,16.801 C99.7293165,16.8881657 100.027728,17.0248812 100.299,17.206 C100.458154,17.3508262 100.546171,17.5579032 100.54,17.773 C100.564573,17.9687009 100.469656,18.1601102 100.299,18.259 C100.138,18.421 99.899,18.421 99.499,18.421 C99.2551791,18.4341629 99.0108634,18.4067914 98.776,18.34 C98.535,18.259 98.294,18.178 97.976,18.097 C97.7187053,17.9934049 97.4757305,17.8572987 97.253,17.692 C97.012,17.53 96.853,17.368 96.61,17.206 L95.083,19.231 C95.343039,19.3943756 95.5853473,19.5844016 95.806,19.798 L96.77,20.284 C97.17,20.446 97.57,20.527 97.976,20.689 C98.4793322,20.7872249 98.9902624,20.8414297 99.503,20.851 C100.109139,20.8764497 100.713276,20.7657368 101.271,20.527 C101.724832,20.382435 102.138066,20.132644 102.477,19.798 C102.788843,19.5013011 103.035125,19.1426089 103.2,18.745 C103.356397,18.3872524 103.438392,18.0014312 103.441,17.611 C103.436537,16.9609858 103.209616,16.3321007 102.798,15.829 C102.252762,15.1896945 101.522478,14.7354506 100.708,14.529 L99.101,13.962 C98.86,13.881 98.619,13.8 98.538,13.638 C98.4369691,13.4957307 98.3808904,13.3264496 98.377,13.152 C98.3736245,12.9821135 98.4670759,12.8250687 98.618,12.747 C98.779,12.585 99.018,12.585 99.341,12.585 C99.7277883,12.5958337 100.109223,12.6782236 100.466,12.828 C100.945235,13.0078478 101.382801,13.2834533 101.752,13.638 L103.433,11.776 Z M103.433,6.024 L104.397,6.024 L104.397,5.294 L101.745,5.294 L101.745,6.023 L102.709,6.023 L102.709,7.967 L103.432,7.967 L103.433,6.024 Z M107.533,7.968 L107.533,5.294 L106.569,5.294 L106.087,6.594 L105.605,5.294 L104.641,5.294 L104.641,7.967 L105.364,7.967 L105.364,6.267 L105.846,7.482 L106.328,7.482 L106.811,6.266 L106.811,7.966 L107.533,7.968 Z" id="Shape-2" fill="#010101"></path>
                    </g>
                </g>
            </g>
        </g>
    </g>
</svg>