<?xml version="1.0" encoding="UTF-8"?>
<svg width="20px" height="20px" viewBox="0 0 20 20" version="1.1" xmlns="http://www.w3.org/2000/svg" xmlns:xlink="http://www.w3.org/1999/xlink">
    <!-- Generator: sketchtool 54.1 (76490) - https://sketchapp.com -->
    <title>99D97B15-72A1-43A1-B00A-B6C87800F7E7</title>
    <desc>Created with sketchtool.</desc>
    <g id="Page-1" stroke="none" stroke-width="1" fill="none" fill-rule="evenodd" opacity="1.0">
        <g id="alerts-list" transform="translate(-312.000000, -766.000000)" fill="#B7BABD" fill-rule="nonzero">
            <g id="alerts_list">
                <g id="Navigation_Bar_6" transform="translate(0.000000, 756.000000)">
                    <g id="Profile_2" transform="translate(312.000000, 10.000000)">
                        <g id="Icons-16">
                            <path d="M10,0 C4.4771525,-3.38176876e-16 6.76353751e-16,4.4771525 0,10 C-6.76353751e-16,15.5228475 4.4771525,20 10,20 C15.5228475,20 20,15.5228475 20,10 C20,7.3478351 18.9464316,4.80429597 17.0710678,2.92893219 C15.195704,1.0535684 12.6521649,1.62398263e-16 10,0 Z M10,3 C11.4311853,3.00064843 12.6626211,4.01216149 12.9412421,5.41596422 C13.2198631,6.81976694 12.4680739,8.2249024 11.1456192,8.77208202 C9.82316461,9.31926164 8.29834625,8.85609673 7.50364293,7.66582853 C6.7089396,6.47556033 6.86567498,4.88967674 7.878,3.878 C8.44088694,3.31547353 9.20421258,2.99963945 10,3 Z M10,17.2 C7.58675511,17.2000112 5.33398815,15.9910262 4,13.98 C4.03,11.99 8,10.9 10,10.9 C12,10.9 15.97,11.99 16,13.98 C14.6660119,15.9910262 12.4132449,17.2000112 10,17.2 Z" id="Path_643"></path>
                        </g>
                    </g>
                </g>
            </g>
        </g>
    </g>
</svg>