<?xml version="1.0" encoding="UTF-8"?>
<svg width="12px" height="12px" viewBox="0 0 12 12" version="1.1" xmlns="http://www.w3.org/2000/svg" xmlns:xlink="http://www.w3.org/1999/xlink">
    <!-- Generator: sketchtool 54.1 (76490) - https://sketchapp.com -->
    <title>7B3F6741-2925-4DDC-BADC-0BDF72547A99</title>
    <desc>Created with sketchtool.</desc>
    <g id="Page-1" stroke="none" stroke-width="1" fill="none" fill-rule="evenodd">
        <g id="alert_document" transform="translate(-323.000000, -179.000000)" fill="#00A7E0" fill-rule="nonzero">
            <g id="icons-/-document-/-region" transform="translate(323.000000, 179.000000)">
                <path d="M6,12 C2.6878906,11.9961426 0.00385738115,9.3121094 0,6 C0.00385738115,2.6878906 2.6878906,0.00385738115 6,0 C9.31142545,0.00550529063 11.9944947,2.68857455 12,6 C11.9961426,9.3121094 9.3121094,11.9961426 6,12 Z M6,2 C4.34314575,2 3,3.2536027 3,4.8 C3,6.9 6,10 6,10 C6,10 9,6.9 9,4.8 C9,3.2536027 7.65685425,2 6,2 Z M6,5.8 C5.40826634,5.8 4.92857143,5.35228475 4.92857143,4.8 C4.92857143,4.24771525 5.40826634,3.8 6,3.8 C6.59173366,3.8 7.07142857,4.24771525 7.07142857,4.8 C7.07142857,5.35228475 6.59173366,5.8 6,5.8 Z" id="Combined-Shape"></path>
            </g>
        </g>
    </g>
</svg>