<?xml version="1.0" encoding="UTF-8"?>
<svg width="26px" height="15px" viewBox="0 0 26 15" version="1.1" xmlns="http://www.w3.org/2000/svg" xmlns:xlink="http://www.w3.org/1999/xlink">
    <!-- Generator: sketchtool 54.1 (76490) - https://sketchapp.com -->
    <title>7E0828CB-30E0-4F59-A8BF-F5A36A927B4E</title>
    <desc>Created with sketchtool.</desc>
    <g id="Page-1" stroke="none" stroke-width="1" fill="none" fill-rule="evenodd">
        <g id="alert_document" transform="translate(-15.000000, -777.000000)" fill="#616A6D" fill-rule="nonzero">
            <g id="action-bar-/-3-buttons" transform="translate(0.000000, 756.000000)">
                <g id="button-/-related-off" transform="translate(15.000000, 16.000000)">
                    <g id="icons-/-related">
                        <path d="M0,14 L3,14 L3,11 L0,11 L0,14 Z M0,20 L3,20 L3,17 L0,17 L0,20 Z M0,8 L3,8 L3,5 L0,5 L0,8 Z M6,14 L26,14 L26,11 L6,11 L6,14 Z M6,20 L26,20 L26,17 L6,17 L6,20 Z M6,5 L6,8 L26,8 L26,5 L6,5 Z" id="List_15"></path>
                    </g>
                </g>
            </g>
        </g>
    </g>
</svg>