<?xml version="1.0" encoding="UTF-8"?>
<svg width="16px" height="16px" viewBox="0 0 16 16" version="1.1" xmlns="http://www.w3.org/2000/svg" xmlns:xlink="http://www.w3.org/1999/xlink">
    <!-- Generator: sketchtool 54.1 (76490) - https://sketchapp.com -->
    <title>6EB2B078-C25B-47EC-8236-6CD8A3D13199</title>
    <desc>Created with sketchtool.</desc>
    <g id="Page-1" stroke="none" stroke-width="1" fill="none" fill-rule="evenodd">
        <g id="alerts---create-(no-result)-" transform="translate(-24.000000, -90.000000)" fill="#00A7E0" fill-rule="nonzero">
            <g id="form-field-/-edit" transform="translate(24.000000, 86.000000)">
                <g id="icons-/-search" transform="translate(0.000000, 4.000000)">
                    <path d="M16,14.9369038 L10.3748957,9.31179945 C12.2328218,6.89360648 11.8951295,3.44854841 9.60300504,1.43715276 C7.3108806,-0.574242884 3.85114728,-0.461519382 1.69481395,1.69481395 C-0.461519382,3.85114728 -0.574242884,7.3108806 1.43715276,9.60300504 C3.44854841,11.8951295 6.89360648,12.2328218 9.31179945,10.3748957 L14.9369038,16 L16,14.9369038 Z M5.80104404,10.0692203 C3.44402456,10.0690645 1.53337989,8.15825151 1.53343181,5.80123204 C1.53348372,3.44421256 3.44421256,1.53348372 5.80123204,1.53343181 C8.15825151,1.53337989 10.0690645,3.44402456 10.0692203,5.80104404 C10.0667335,8.15726185 8.15726185,10.0667335 5.80104404,10.0692203 Z" id="Shape"></path>
                </g>
            </g>
        </g>
    </g>
</svg>