<?xml version="1.0" encoding="UTF-8"?>
<svg width="20px" height="22px" viewBox="0 0 20 22" version="1.1" xmlns="http://www.w3.org/2000/svg" xmlns:xlink="http://www.w3.org/1999/xlink">
    <!-- Generator: sketchtool 54.1 (76490) - https://sketchapp.com -->
    <title>1189FAE1-A853-45A2-A985-7E3436872342</title>
    <desc>Created with sketchtool.</desc>
    <g id="Page-1" stroke="none" stroke-width="1" fill="none" fill-rule="evenodd">
        <g id="alert_document" transform="translate(-288.000000, -774.000000)" fill="#616A6D" fill-rule="nonzero">
            <g id="action-bar-/-3-buttons" transform="translate(0.000000, 756.000000)">
                <g id="buttons-/-share-off" transform="translate(285.000000, 16.000000)">
                    <g id="icons-/-share">
                        <path d="M19.6809545,17.5510093 C18.8735907,17.5546271 18.096749,17.8580598 17.5029545,18.4017314 L9.57995453,13.8171738 C9.64122998,13.5637745 9.67475815,13.3045337 9.67995453,13.0439707 C9.67475035,12.7834084 9.64122229,12.5241684 9.57995453,12.2707677 L17.4149545,7.73192645 C18.5711773,8.79527388 20.3194209,8.90664283 21.6027841,7.99870517 C22.8861473,7.0907675 23.3525836,5.41258465 22.7201087,3.97870265 C22.0876339,2.54482064 20.5297455,1.74857563 18.9882657,2.07133781 C17.4467859,2.39409999 16.3445664,3.74733067 16.3479545,5.31293378 C16.3531587,5.57349615 16.3866868,5.83273617 16.4479545,6.08613686 L8.61295453,10.6259719 C7.28969314,9.39438822 5.21873183,9.43937836 3.95088507,10.727252 C2.68303831,12.0151256 2.68303831,14.0738097 3.95088507,15.3616833 C5.21873183,16.649557 7.28969314,16.6945471 8.61295453,15.4629634 L16.5279545,20.0574594 C16.4703619,20.2923977 16.4404941,20.5332024 16.4389545,20.7750077 C16.4389545,22.5561218 17.8917905,24 19.6839545,24 C21.4761185,24 22.9289545,22.5561218 22.9289545,20.7750077 C22.9289545,18.9938937 21.4761185,17.5500154 19.6839545,17.5500154 L19.6809545,17.5510093 Z" id="Share"></path>
                    </g>
                </g>
            </g>
        </g>
    </g>
</svg>