<?xml version="1.0" encoding="UTF-8"?>
<svg width="12px" height="12px" viewBox="0 0 12 12" version="1.1" xmlns="http://www.w3.org/2000/svg" xmlns:xlink="http://www.w3.org/1999/xlink">
    <!-- Generator: sketchtool 54.1 (76490) - https://sketchapp.com -->
    <title>ADB314D0-E8A3-4E06-B474-5662FFB1B20E</title>
    <desc>Created with sketchtool.</desc>
    <g id="app" stroke="none" stroke-width="1" fill="none" fill-rule="evenodd">
        <g id="document-metadata" transform="translate(-100.000000, -347.000000)" fill="#00A7E0" fill-rule="nonzero">
            <g id="icons-/-document-/-idrac" transform="translate(100.000000, 347.000000)">
                <path d="M6,0 C7.59129894,9.74389576e-17 9.11742242,0.632141042 10.2426407,1.75735931 C11.367859,2.88257758 12,4.40870106 12,6 C12,9.3137085 9.3137085,12 6,12 C2.6862915,12 -4.05812251e-16,9.3137085 0,6 C4.05812251e-16,2.6862915 2.6862915,-2.02906125e-16 6,0 Z M9.4,6.18730532 L3.59805632,6.18730532 L3.59805632,10 L9.35584351,10 L9.35584351,9.27392807 L4.12952903,9.27392807 L4.12952903,6.91337725 L9.4,6.91337725 L9.4,6.18730532 Z M4.48477448,7.21622496 L4.48477448,7.94229689 L9.05940693,7.94229689 L9.05940693,7.21622496 L4.48477448,7.21622496 Z M4.48477448,8.24500843 L4.48477448,8.97108036 L9.05940693,8.97108036 L9.05940693,8.24500843 L4.48477448,8.24500843 Z M6.73376526,5.08662275 L3.53147271,5.08662275 L3.53147271,2.72607193 L6.73376526,2.72607193 L7.26523798,2.72321231 L7.26523798,5.61905735 L7.92977822,5.07436722 L8.59421879,5.61905735 L8.59421879,2.71585899 L8.93909793,2.71408875 L8.93909793,2 L3,2 L3,5.81269468 L6.73376526,5.81269468 L6.73376526,5.08662275 Z M3.88671817,3.02891964 L3.88671817,3.75499157 L6.73386494,3.75499157 L6.73386494,3.02891964 L3.88671817,3.02891964 Z M3.88671817,4.05770311 L3.88671817,4.78377504 L6.73386494,4.78377504 L6.73386494,4.05770311 L3.88671817,4.05770311 Z" id="source"></path>
            </g>
        </g>
    </g>
</svg>