<?xml version="1.0" encoding="UTF-8"?>
<svg width="12px" height="12px" viewBox="0 0 12 12" version="1.1" xmlns="http://www.w3.org/2000/svg" xmlns:xlink="http://www.w3.org/1999/xlink">
    <!-- Generator: sketchtool 54.1 (76490) - https://sketchapp.com -->
    <title>2FDFCBBC-E407-4EC3-9CD6-33CD2CFA10FD</title>
    <desc>Created with sketchtool.</desc>
    <g id="app" stroke="none" stroke-width="1" fill="none" fill-rule="evenodd">
        <g id="document-metadata" transform="translate(-237.000000, -179.000000)" fill="#00A7E0" fill-rule="nonzero">
            <g id="icons-/-document-/-tick" transform="translate(237.000000, 179.000000)">
                <path d="M6,0 C7.59129894,9.74389576e-17 9.11742242,0.632141042 10.2426407,1.75735931 C11.367859,2.88257758 12,4.40870106 12,6 C12,9.3137085 9.3137085,12 6,12 C2.6862915,12 -4.05812251e-16,9.3137085 0,6 C4.05812251e-16,2.6862915 2.6862915,-2.02906125e-16 6,0 Z M9.28042319,7 C8.85241517,8.40566181 7.54561021,9.42857143 6,9.42857143 C4.10661587,9.42857143 2.57142857,7.89348571 2.57142857,6 C2.57142857,4.1064127 4.10661587,2.57142857 6,2.57142857 L6,2 C3.79067937,2 2,3.79078095 2,6 C2,8.20921905 3.79067937,10 6,10 C7.86391659,10 9.429977,8.72527103 9.87399434,7 L11,7 L9.50005333,5 L9.2,5.40005689 L8,7 L9.28042319,7 Z M5.0122549,6.90732967 L6.11519608,6.90732967 L5.0122549,5.79469231 L5.0122549,6.90732967 Z M5.30074942,5.50353168 L6.40368677,6.61616518 L9.97537366,3.01307885 L8.8724363,1.90044535 L5.30074942,5.50353168 Z" id="version"></path>
            </g>
        </g>
    </g>
</svg>